<svg width="28" height="28" viewBox="0 0 28 28" fill="white" xmlns="http://www.w3.org/2000/svg">

<path d="M18.4104 12.8626C18.992 12.4745 19.6782 12.3092 20.3497 12.3845L28 4.73211L23.7157 0.447754L16.0643 8.10019C16.1417 8.78008 15.9702 9.47461 15.5664 10.0635L18.4104 12.8626Z" />
<path d="M5.06446 22.1824L4.78727 21.9052L3.33649 23.0778L0.893066 26.928L1.51857 27.5535L5.37198 25.1101L6.54348 23.6635L6.26525 23.3821L11.1312 18.5152L9.92202 17.3228L5.06446 22.1824Z" />
<path d="M11.7192 8.68899C12.2809 6.6807 11.7715 4.43601 10.1952 2.85657C8.62414 1.29178 6.4056 0.778198 4.40881 1.32002L7.79049 4.70065L6.90349 8.01224L3.58772 8.89923L0.207088 5.5207C-0.332641 7.51644 0.179892 9.73498 1.74783 11.304C3.39107 12.9482 5.75918 13.4304 7.83023 12.7568L7.84906 12.7757L21.7596 26.6862C22.3098 27.2354 23.0315 27.5136 23.7522 27.5136C24.474 27.5136 25.1936 27.2354 25.7459 26.6862C26.8452 25.589 26.8452 23.8056 25.7459 22.7L11.7192 8.68899ZM23.9949 26.2134C23.4029 26.2134 22.9228 25.7312 22.9228 25.1371C22.9228 24.5409 23.4029 24.0608 23.9949 24.0608C24.5911 24.0608 25.0733 24.5409 25.0733 25.1371C25.0744 25.7312 24.5922 26.2134 23.9949 26.2134Z" />

</svg>
