<svg width="18" height="18" viewBox="0 0 18 18" fill="none" xmlns="http://www.w3.org/2000/svg">
<path d="M0.819459 0.521741C0.614221 0.566963 0.419418 0.699151 0.304624 0.87656C0.224616 0.994833 0.203744 1.06441 0.196787 1.28356C0.186351 1.50967 0.196787 1.5688 0.269838 1.70447C0.318538 1.79144 0.429854 1.91319 0.523777 1.98276L0.69075 2.10451L1.67172 2.1219C2.684 2.1393 2.73618 2.14626 2.77792 2.28888C2.78836 2.32366 3.08056 4.26821 3.42494 6.6128C3.77628 9.00609 4.0824 10.9785 4.12067 11.1072C4.27025 11.5872 4.71899 12.1125 5.19904 12.363C5.69996 12.6273 5.3521 12.6099 10.3648 12.6099C14.6122 12.6099 14.8626 12.6065 15.0783 12.5473C15.7914 12.3456 16.4245 11.7542 16.6298 11.1037C16.7307 10.7767 18.0003 4.36561 18.0003 4.17429C18.0003 3.80208 17.7429 3.49248 17.3742 3.41247C17.249 3.38464 15.3218 3.37421 10.904 3.37421H4.61463L4.59376 3.27681C4.58332 3.22463 4.53462 2.91851 4.48592 2.59848C4.37461 1.84709 4.34678 1.73578 4.1972 1.45053C4.06501 1.18964 3.72758 0.848731 3.48408 0.723501C3.10839 0.532177 2.98664 0.514784 1.94653 0.50087C1.41082 0.497391 0.902946 0.504348 0.819459 0.521741Z" fill="white"/>
<path d="M6.13826 13.3752C5.41123 13.5526 4.86509 14.0536 4.62159 14.7667C4.50331 15.118 4.48592 15.6502 4.5868 15.9807C4.81291 16.7356 5.4008 17.2922 6.13479 17.4487C7.17141 17.6678 8.24631 16.9965 8.54199 15.9494C8.622 15.6676 8.6046 15.0589 8.51068 14.7771C8.17325 13.7579 7.11923 13.1352 6.13826 13.3752Z" fill="white"/>
<path d="M13.2868 13.3578C12.5389 13.5179 11.9162 14.064 11.7006 14.7458C11.6101 15.0345 11.5753 15.5459 11.631 15.8346C11.7771 16.5895 12.3998 17.2469 13.1581 17.4452C13.426 17.5183 13.9304 17.5183 14.2087 17.4452C14.8035 17.2922 15.3009 16.8852 15.5584 16.3494C15.7219 16.0016 15.774 15.7824 15.774 15.4172C15.774 14.5336 15.2105 13.7509 14.3548 13.4378C14.0973 13.3404 13.5442 13.2987 13.2868 13.3578Z" fill="white"/>
</svg>
