<svg width="17" height="16" viewBox="0 0 17 16" fill="none" xmlns="http://www.w3.org/2000/svg">
<path d="M2.14301 3.55556C2.61451 3.55556 3.06669 3.36825 3.40009 3.03486C3.73349 2.70146 3.92079 2.24927 3.92079 1.77778C3.92079 1.30628 3.73349 0.854097 3.40009 0.520699C3.06669 0.187301 2.61451 0 2.14301 0C1.67152 0 1.21933 0.187301 0.885933 0.520699C0.552535 0.854097 0.365234 1.30628 0.365234 1.77778C0.365234 2.24927 0.552535 2.70146 0.885933 3.03486C1.21933 3.36825 1.67152 3.55556 2.14301 3.55556ZM8.36523 3.55556C8.83673 3.55556 9.28891 3.36825 9.62231 3.03486C9.95571 2.70146 10.143 2.24927 10.143 1.77778C10.143 1.30628 9.95571 0.854097 9.62231 0.520699C9.28891 0.187301 8.83673 0 8.36523 0C7.89374 0 7.44155 0.187301 7.10816 0.520699C6.77476 0.854097 6.58746 1.30628 6.58746 1.77778C6.58746 2.24927 6.77476 2.70146 7.10816 3.03486C7.44155 3.36825 7.89374 3.55556 8.36523 3.55556ZM14.5875 3.55556C15.059 3.55556 15.5111 3.36825 15.8445 3.03486C16.1779 2.70146 16.3652 2.24927 16.3652 1.77778C16.3652 1.30628 16.1779 0.854097 15.8445 0.520699C15.5111 0.187301 15.059 0 14.5875 0C14.116 0 13.6638 0.187301 13.3304 0.520699C12.997 0.854097 12.8097 1.30628 12.8097 1.77778C12.8097 2.24927 12.997 2.70146 13.3304 3.03486C13.6638 3.36825 14.116 3.55556 14.5875 3.55556ZM2.14301 9.77778C2.61451 9.77778 3.06669 9.59048 3.40009 9.25708C3.73349 8.92368 3.92079 8.4715 3.92079 8C3.92079 7.5285 3.73349 7.07632 3.40009 6.74292C3.06669 6.40952 2.61451 6.22222 2.14301 6.22222C1.67152 6.22222 1.21933 6.40952 0.885933 6.74292C0.552535 7.07632 0.365234 7.5285 0.365234 8C0.365234 8.4715 0.552535 8.92368 0.885933 9.25708C1.21933 9.59048 1.67152 9.77778 2.14301 9.77778ZM8.36523 9.77778C8.83673 9.77778 9.28891 9.59048 9.62231 9.25708C9.95571 8.92368 10.143 8.4715 10.143 8C10.143 7.5285 9.95571 7.07632 9.62231 6.74292C9.28891 6.40952 8.83673 6.22222 8.36523 6.22222C7.89374 6.22222 7.44155 6.40952 7.10816 6.74292C6.77476 7.07632 6.58746 7.5285 6.58746 8C6.58746 8.4715 6.77476 8.92368 7.10816 9.25708C7.44155 9.59048 7.89374 9.77778 8.36523 9.77778ZM14.5875 9.77778C15.059 9.77778 15.5111 9.59048 15.8445 9.25708C16.1779 8.92368 16.3652 8.4715 16.3652 8C16.3652 7.5285 16.1779 7.07632 15.8445 6.74292C15.5111 6.40952 15.059 6.22222 14.5875 6.22222C14.116 6.22222 13.6638 6.40952 13.3304 6.74292C12.997 7.07632 12.8097 7.5285 12.8097 8C12.8097 8.4715 12.997 8.92368 13.3304 9.25708C13.6638 9.59048 14.116 9.77778 14.5875 9.77778ZM2.14301 16C2.61451 16 3.06669 15.8127 3.40009 15.4793C3.73349 15.1459 3.92079 14.6937 3.92079 14.2222C3.92079 13.7507 3.73349 13.2985 3.40009 12.9651C3.06669 12.6317 2.61451 12.4444 2.14301 12.4444C1.67152 12.4444 1.21933 12.6317 0.885933 12.9651C0.552535 13.2985 0.365234 13.7507 0.365234 14.2222C0.365234 14.6937 0.552535 15.1459 0.885933 15.4793C1.21933 15.8127 1.67152 16 2.14301 16ZM8.36523 16C8.83673 16 9.28891 15.8127 9.62231 15.4793C9.95571 15.1459 10.143 14.6937 10.143 14.2222C10.143 13.7507 9.95571 13.2985 9.62231 12.9651C9.28891 12.6317 8.83673 12.4444 8.36523 12.4444C7.89374 12.4444 7.44155 12.6317 7.10816 12.9651C6.77476 13.2985 6.58746 13.7507 6.58746 14.2222C6.58746 14.6937 6.77476 15.1459 7.10816 15.4793C7.44155 15.8127 7.89374 16 8.36523 16ZM14.5875 16C15.059 16 15.5111 15.8127 15.8445 15.4793C16.1779 15.1459 16.3652 14.6937 16.3652 14.2222C16.3652 13.7507 16.1779 13.2985 15.8445 12.9651C15.5111 12.6317 15.059 12.4444 14.5875 12.4444C14.116 12.4444 13.6638 12.6317 13.3304 12.9651C12.997 13.2985 12.8097 13.7507 12.8097 14.2222C12.8097 14.6937 12.997 15.1459 13.3304 15.4793C13.6638 15.8127 14.116 16 14.5875 16Z" fill="white"/>
</svg>
