<svg width="31" height="24" viewBox="0 0 31 24" fill="none" xmlns="http://www.w3.org/2000/svg">
<g clip-path="url(#clip0)">
<path d="M30.3691 23.6632V23.7257H30.4269C30.4397 23.7257 30.4507 23.7227 30.4586 23.7178C30.4659 23.713 30.4702 23.7045 30.4702 23.6942C30.4702 23.6839 30.4659 23.676 30.4586 23.6711C30.4507 23.6657 30.4397 23.6632 30.4269 23.6632H30.3691ZM30.4275 23.6196C30.4574 23.6196 30.4805 23.6263 30.497 23.6396C30.5134 23.6529 30.5213 23.6711 30.5213 23.6942C30.5213 23.7136 30.5153 23.7293 30.5019 23.7421C30.4891 23.7542 30.4708 23.7621 30.4464 23.7651L30.5232 23.853H30.4635L30.3922 23.7657H30.3691V23.853H30.3191V23.6196H30.4275ZM30.4123 23.9336C30.4397 23.9336 30.4653 23.9282 30.4885 23.9178C30.5122 23.9075 30.5329 23.8936 30.5506 23.876C30.5682 23.8584 30.5823 23.8378 30.5926 23.8136C30.6024 23.7899 30.6078 23.7645 30.6078 23.7372C30.6078 23.7099 30.6024 23.6845 30.5926 23.6608C30.5823 23.6372 30.5682 23.616 30.5506 23.5984C30.5329 23.5808 30.5122 23.5669 30.4885 23.5566C30.4653 23.5469 30.4397 23.542 30.4123 23.542C30.3849 23.542 30.3587 23.5469 30.335 23.5566C30.3106 23.5669 30.2893 23.5808 30.2716 23.5984C30.254 23.616 30.2399 23.6372 30.2302 23.6608C30.2198 23.6845 30.215 23.7099 30.215 23.7372C30.215 23.7645 30.2198 23.7899 30.2302 23.8136C30.2399 23.8378 30.254 23.8584 30.2716 23.876C30.2893 23.8936 30.3106 23.9075 30.335 23.9178C30.3587 23.9282 30.3849 23.9336 30.4123 23.9336ZM30.4123 23.4856C30.4483 23.4856 30.4811 23.4923 30.5128 23.5056C30.5439 23.5184 30.5707 23.5366 30.5944 23.5596C30.6176 23.582 30.6359 23.6087 30.6493 23.6396C30.6627 23.6699 30.6694 23.7026 30.6694 23.7372C30.6694 23.7718 30.6627 23.8045 30.6493 23.8348C30.6359 23.8651 30.6176 23.8918 30.5944 23.9148C30.5707 23.9372 30.5439 23.9554 30.5128 23.9688C30.4811 23.9821 30.4483 23.9888 30.4123 23.9888C30.3758 23.9888 30.3423 23.9821 30.3106 23.9688C30.2789 23.9554 30.2515 23.9372 30.2284 23.9148C30.2052 23.8918 30.187 23.8651 30.1736 23.8348C30.1602 23.8045 30.1535 23.7718 30.1535 23.7372C30.1535 23.7026 30.1602 23.6699 30.1736 23.6396C30.187 23.6087 30.2052 23.582 30.2284 23.5596C30.2515 23.5366 30.2789 23.5184 30.3106 23.5056C30.3423 23.4923 30.3758 23.4856 30.4123 23.4856ZM6.68149 22.5867C6.68149 22.1417 6.97446 21.7762 7.4532 21.7762C7.91063 21.7762 8.21944 22.1259 8.21944 22.5867C8.21944 23.0474 7.91063 23.3971 7.4532 23.3971C6.97446 23.3971 6.68149 23.0316 6.68149 22.5867ZM8.74083 22.5867V21.3209H8.18777V21.6283C8.01235 21.4003 7.74618 21.2573 7.38438 21.2573C6.67113 21.2573 6.11198 21.8138 6.11198 22.5867C6.11198 23.3602 6.67113 23.916 7.38438 23.916C7.74618 23.916 8.01235 23.773 8.18777 23.545V23.8524H8.74083V22.5867ZM27.4302 22.5867C27.4302 22.1417 27.7232 21.7762 28.2019 21.7762C28.66 21.7762 28.9682 22.1259 28.9682 22.5867C28.9682 23.0474 28.66 23.3971 28.2019 23.3971C27.7232 23.3971 27.4302 23.0316 27.4302 22.5867ZM29.4902 22.5867V20.3043H28.9365V21.6283C28.7611 21.4003 28.4949 21.2573 28.1331 21.2573C27.4198 21.2573 26.8607 21.8138 26.8607 22.5867C26.8607 23.3602 27.4198 23.916 28.1331 23.916C28.4949 23.916 28.7611 23.773 28.9365 23.545V23.8524H29.4902V22.5867ZM15.6059 21.7501C15.9622 21.7501 16.1912 21.9726 16.2497 22.3642H14.9298C14.9889 21.9986 15.2118 21.7501 15.6059 21.7501ZM15.6169 21.2573C14.8713 21.2573 14.35 21.7974 14.35 22.5867C14.35 23.3917 14.8927 23.916 15.654 23.916C16.0371 23.916 16.388 23.8209 16.6968 23.5614L16.4257 23.1534C16.2126 23.3226 15.9409 23.4183 15.6857 23.4183C15.3294 23.4183 15.0047 23.2541 14.9249 22.7982H16.8137C16.8192 22.7297 16.8247 22.6606 16.8247 22.5867C16.8192 21.7974 16.3295 21.2573 15.6169 21.2573ZM22.295 22.5867C22.295 22.1417 22.5879 21.7762 23.0667 21.7762C23.5241 21.7762 23.8329 22.1259 23.8329 22.5867C23.8329 23.0474 23.5241 23.3971 23.0667 23.3971C22.5879 23.3971 22.295 23.0316 22.295 22.5867ZM24.3543 22.5867V21.3209H23.8012V21.6283C23.6252 21.4003 23.3596 21.2573 22.9978 21.2573C22.2846 21.2573 21.7254 21.8138 21.7254 22.5867C21.7254 23.3602 22.2846 23.916 22.9978 23.916C23.3596 23.916 23.6252 23.773 23.8012 23.545V23.8524H24.3543V22.5867ZM19.1715 22.5867C19.1715 23.3547 19.7087 23.916 20.5286 23.916C20.9117 23.916 21.1669 23.8312 21.4434 23.6141L21.1779 23.1692C20.9702 23.3177 20.7521 23.3971 20.5121 23.3971C20.0705 23.3917 19.7459 23.074 19.7459 22.5867C19.7459 22.0993 20.0705 21.7816 20.5121 21.7762C20.7521 21.7762 20.9702 21.8556 21.1779 22.0041L21.4434 21.5592C21.1669 21.3421 20.9117 21.2573 20.5286 21.2573C19.7087 21.2573 19.1715 21.8186 19.1715 22.5867ZM26.3022 21.2573C25.983 21.2573 25.7753 21.4058 25.6316 21.6283V21.3209H25.0834V23.8524H25.637V22.4333C25.637 22.0144 25.8179 21.7816 26.1797 21.7816C26.2918 21.7816 26.4088 21.7974 26.5257 21.8453L26.6962 21.3264C26.5738 21.2785 26.4142 21.2573 26.3022 21.2573ZM11.4763 21.5222C11.2101 21.3476 10.8434 21.2573 10.439 21.2573C9.79455 21.2573 9.37976 21.5646 9.37976 22.0678C9.37976 22.4806 9.68857 22.7352 10.2575 22.8146L10.5188 22.8516C10.8221 22.894 10.9652 22.9734 10.9652 23.1165C10.9652 23.3123 10.763 23.4238 10.3854 23.4238C10.0023 23.4238 9.72573 23.302 9.53934 23.1589L9.27865 23.5875C9.58198 23.8099 9.9651 23.916 10.3799 23.916C11.1145 23.916 11.5402 23.5717 11.5402 23.0898C11.5402 22.6448 11.2052 22.4121 10.6515 22.3327L10.3909 22.2951C10.1515 22.2636 9.95962 22.2163 9.95962 22.0465C9.95962 21.861 10.1405 21.7501 10.4438 21.7501C10.7685 21.7501 11.0828 21.872 11.2369 21.9671L11.4763 21.5222ZM18.6124 21.2573C18.2932 21.2573 18.0855 21.4058 17.9424 21.6283V21.3209H17.3942V23.8524H17.9473V22.4333C17.9473 22.0144 18.1282 21.7816 18.49 21.7816C18.602 21.7816 18.719 21.7974 18.8359 21.8453L19.0065 21.3264C18.884 21.2785 18.7245 21.2573 18.6124 21.2573ZM13.8925 21.3209H12.988V20.5529H12.4289V21.3209H11.913V21.8241H12.4289V22.9789C12.4289 23.5663 12.6579 23.916 13.3121 23.916C13.552 23.916 13.8286 23.8421 14.004 23.7202L13.8444 23.2486C13.6793 23.3438 13.4984 23.3917 13.3547 23.3917C13.0782 23.3917 12.988 23.2219 12.988 22.9679V21.8241H13.8925V21.3209ZM5.62288 23.8524V22.2636C5.62288 21.6652 5.23976 21.2627 4.62215 21.2573C4.2975 21.2518 3.9625 21.3525 3.728 21.7077C3.55258 21.427 3.27605 21.2573 2.88745 21.2573C2.6158 21.2573 2.35023 21.3367 2.14253 21.6331V21.3209H1.58887V23.8524H2.1474V22.449C2.1474 22.0096 2.39226 21.7762 2.7705 21.7762C3.13779 21.7762 3.32356 22.0144 3.32356 22.4436V23.8524H3.88271V22.449C3.88271 22.0096 4.13792 21.7762 4.5052 21.7762C4.88284 21.7762 5.06374 22.0144 5.06374 22.4436V23.8524H5.62288Z" fill="#231F20"/>
<path d="M30.7068 15.4336V15.0638H30.6104L30.4988 15.3178L30.3879 15.0638H30.2909V15.4336H30.3594V15.1547L30.4637 15.3954H30.5346L30.6389 15.1541V15.4336H30.7068ZM30.0951 15.4336V15.1269H30.2188V15.0644H29.9036V15.1269H30.0272V15.4336H30.0951Z" fill="#F79410"/>
<path d="M19.6975 17.0245H11.3154V2.03223H19.6975V17.0245Z" fill="#FF5F00"/>
<path d="M11.8525 9.52677C11.8525 6.48551 13.2832 3.77645 15.5113 2.03062C13.882 0.75399 11.8257 -0.00799071 9.59091 -0.00799071C4.30034 -0.00799071 0.0117188 4.2608 0.0117188 9.52677C0.0117188 14.7927 4.30034 19.0615 9.59091 19.0615C11.8257 19.0615 13.882 18.2995 15.5113 17.0229C13.2832 15.2771 11.8525 12.568 11.8525 9.52677Z" fill="#EB001B"/>
<path d="M31.0031 9.52677C31.0031 14.7927 26.7145 19.0615 21.4239 19.0615C19.1892 19.0615 17.1329 18.2995 15.5029 17.0229C17.7316 15.2771 19.1624 12.568 19.1624 9.52677C19.1624 6.48551 17.7316 3.77645 15.5029 2.03062C17.1329 0.75399 19.1892 -0.00799071 21.4239 -0.00799071C26.7145 -0.00799071 31.0031 4.2608 31.0031 9.52677Z" fill="#F79E1B"/>
</g>
<defs>
<clipPath id="clip0">
<rect width="31" height="24" fill="white"/>
</clipPath>
</defs>
</svg>
