<svg width="58" height="16" viewBox="0 0 58 16" fill="none" xmlns="http://www.w3.org/2000/svg">
<mask id="mask0" mask-type="alpha" maskUnits="userSpaceOnUse" x="0" y="0" width="58" height="16">
<rect width="58" height="16" fill="#C4C4C4"/>
</mask>
<g mask="url(#mask0)">
<path fill-rule="evenodd" clip-rule="evenodd" d="M41.7715 7.22852V16.0001H46.6446V10.8021H52.1674C54.4919 10.7849 56.4664 9.30005 57.2109 7.22852H41.7715Z" fill="white"/>
<path fill-rule="evenodd" clip-rule="evenodd" d="M41.1216 0C41.4054 3.58533 44.7974 6.41624 48.9399 6.41624C48.9535 6.41624 57.4132 6.41624 57.4132 6.41624C57.4757 6.08742 57.5085 5.74804 57.5085 5.40101C57.5085 2.43101 55.1123 0.0219715 52.1481 0.000149436L41.1216 0Z" fill="url(#paint0_linear)"/>
<path fill-rule="evenodd" clip-rule="evenodd" d="M33.9097 6.33092L33.9135 6.32274L33.914 6.32287C33.964 6.23322 34.0597 6.17259 34.1696 6.17259C34.3284 6.17259 34.4576 6.29911 34.4619 6.45682L34.462 6.45685V15.9188H39.3351V0H34.462C33.8441 0.0205686 33.1459 0.474037 32.8863 1.03068L29.0083 9.34718C28.9987 9.38117 28.9837 9.41291 28.9643 9.4414L28.963 9.44418L28.9625 9.44402C28.9039 9.52847 28.8061 9.58376 28.6955 9.58376C28.5161 9.58376 28.3707 9.4383 28.3707 9.25888V0H23.4976V15.9188H28.3707V15.917C28.9819 15.885 29.6636 15.4367 29.9194 14.8881L33.8997 6.35237C33.9028 6.34507 33.9061 6.33791 33.9097 6.33092Z" fill="white"/>
<path fill-rule="evenodd" clip-rule="evenodd" d="M15.713 6.60304L12.8648 15.9188H9.35925L6.50941 6.59738C6.48193 6.44811 6.35112 6.33502 6.19391 6.33502C6.01673 6.33502 5.8731 6.47866 5.8731 6.65584C5.8731 6.65719 5.8731 6.65854 5.87312 6.65989L5.8731 15.9188H1V0H5.18274H6.42844C7.32511 0 8.26475 0.695863 8.52678 1.55292L10.8984 9.31011C11.0164 9.69606 11.2078 9.69565 11.3257 9.31011L13.6973 1.55292C13.9595 0.695264 14.8989 0 15.7956 0L17.041 0H21.2233V15.9188H16.3503V6.6599C16.3502 6.65854 16.3503 6.65719 16.3503 6.65584C16.3503 6.47866 16.2066 6.33502 16.0294 6.33502C15.8702 6.33502 15.7381 6.45098 15.713 6.60304Z" fill="white"/>
</g>
<defs>
<linearGradient id="paint0_linear" x1="41.1216" y1="3.20812" x2="57.5085" y2="3.20812" gradientUnits="userSpaceOnUse">
<stop stop-color="#00A0E5"/>
<stop offset="1" stop-color="#0077C3"/>
</linearGradient>
</defs>
</svg>
