<svg width="15" height="16" viewBox="0 0 15 16" fill="none" xmlns="http://www.w3.org/2000/svg">
<path d="M2.50256 0.569911C2.12758 0.649009 1.67057 0.798416 1.52117 0.889232C1.2663 1.04743 0.961623 1.4019 0.654021 1.90871C0.343489 2.41845 0.132562 2.96335 0.041746 3.47602C-0.0139153 3.8012 -0.0139153 4.46035 0.041746 4.78259C0.123773 5.25425 0.361066 5.97785 0.826864 7.19361C1.40105 8.68182 2.33558 10.0148 3.90874 11.5879C5.48484 13.164 6.80899 14.0927 8.30306 14.6698C9.33719 15.0682 9.94653 15.2762 10.427 15.3993C10.8371 15.5018 11.59 15.5311 12.0001 15.4579C12.7032 15.3348 13.4298 15.0038 14.0918 14.4999C14.5225 14.1747 14.6602 13.9667 14.8184 13.416C14.9971 12.7949 15.0498 12.2441 14.9502 12.0772C14.8711 11.9453 14.6983 11.8369 13.5909 11.2217C13.002 10.8966 12.3693 10.5274 12.1818 10.4044C11.7365 10.1056 11.5988 10.0411 11.4113 10.0382C11.1271 10.0353 10.8342 10.2784 10.2483 11.0049C9.70631 11.6758 9.4075 11.9541 9.22001 11.9541C9.05888 11.9541 8.80108 11.834 8.20638 11.4825C7.14589 10.8526 6.4926 10.3604 5.81295 9.68372C5.14208 9.00993 4.64699 8.35078 4.01714 7.29321C3.66266 6.69559 3.54255 6.44072 3.54255 6.27666C3.54255 6.0921 3.82086 5.78743 4.48293 5.25425C4.93115 4.89392 5.26805 4.56288 5.37644 4.37832C5.4409 4.26993 5.45847 4.20255 5.45847 4.08536C5.45554 3.89787 5.39109 3.76018 5.09228 3.31489C4.96924 3.1274 4.60012 2.49462 4.27494 1.90578C3.65973 0.798416 3.55134 0.625572 3.41951 0.546475C3.30526 0.479095 2.89512 0.487885 2.50256 0.569911Z" fill="#ADB0B2"/>
</svg>
