<svg width="17" height="16" viewBox="0 0 17 16" fill="none" xmlns="http://www.w3.org/2000/svg">
<path d="M3.66798 0.0729713C3.26792 0.157358 2.78034 0.316757 2.62095 0.413647C2.34903 0.582422 2.02398 0.960604 1.69581 1.50131C1.36451 2.04514 1.13947 2.62648 1.04258 3.17343C0.983201 3.52036 0.983201 4.22359 1.04258 4.56739C1.1301 5.07059 1.38326 5.84258 1.88021 7.13965C2.4928 8.72739 3.48983 10.1495 5.1682 11.8279C6.8497 13.5094 8.26241 14.5001 9.8564 15.1158C10.9597 15.5409 11.6098 15.7628 12.1224 15.8941C12.5599 16.0035 13.3632 16.0347 13.8007 15.9566C14.5509 15.8253 15.326 15.4721 16.0323 14.9346C16.4918 14.5876 16.6387 14.3657 16.8074 13.7781C16.9981 13.1155 17.0544 12.528 16.9481 12.3498C16.8637 12.2092 16.6793 12.0935 15.4979 11.4372C14.8697 11.0902 14.1946 10.6964 13.9945 10.5652C13.5195 10.2464 13.3726 10.1776 13.1725 10.1745C12.8694 10.1714 12.5568 10.4308 11.9317 11.2059C11.3535 11.9216 11.0347 12.2185 10.8347 12.2185C10.6628 12.2185 10.3877 12.0904 9.75326 11.7153C8.62184 11.0434 7.92486 10.5183 7.19976 9.7963C6.48402 9.07744 5.95582 8.37421 5.28384 7.24592C4.90566 6.60832 4.77752 6.33641 4.77752 6.16138C4.77752 5.96448 5.07444 5.63943 5.78079 5.07059C6.25899 4.68616 6.61842 4.33298 6.73406 4.13608C6.80282 4.02044 6.82157 3.94855 6.82157 3.82353C6.81845 3.6235 6.74969 3.4766 6.43089 3.00153C6.29962 2.8015 5.90581 2.1264 5.55889 1.49818C4.90254 0.316757 4.7869 0.132355 4.64625 0.047967C4.52436 -0.0239182 4.08679 -0.0145416 3.66798 0.0729713Z" fill="white"/>
</svg>
