<svg width="13" height="16" viewBox="0 0 13 16" fill="none" xmlns="http://www.w3.org/2000/svg">
<path d="M5.14477 0.0316639C4.19092 0.188032 3.40595 0.494514 2.64287 1.00428C1.34189 1.87368 0.43808 3.22471 0.106579 4.78839C0.00650332 5.25124 -0.0310251 6.1832 0.0283949 6.67106C0.2004 8.06274 0.932204 9.75778 2.1425 11.5623C2.68978 12.3754 3.55294 13.4887 4.24721 14.2799C4.63813 14.7209 5.45438 15.5966 5.67017 15.8061C5.85468 15.9812 5.88595 16 6.01105 16C6.1424 16 6.15178 15.9937 6.55834 15.5809C8.07824 14.0266 9.51683 12.2034 10.4206 10.6866C11.2838 9.23863 11.7936 7.94703 11.9656 6.77427C12.0406 6.24261 12.0125 5.30128 11.903 4.78839C11.3995 2.40846 9.59188 0.600845 7.20883 0.0942116C6.88046 0.0222816 6.74285 0.0097723 6.11425 0.0035181C5.62013 -0.0058651 5.31677 0.0035181 5.14477 0.0316639ZM6.69281 3.3498C7.00242 3.42798 7.49342 3.67817 7.74048 3.88771C8.96641 4.91974 9.06649 6.73361 7.96253 7.89386C7.15566 8.74138 5.79839 8.96342 4.7601 8.41613C4.04393 8.03772 3.53105 7.3841 3.34653 6.6179C3.26209 6.25512 3.26209 5.72973 3.34653 5.36695C3.48101 4.81028 3.83127 4.25048 4.27849 3.87833C4.51617 3.6813 5.01655 3.42486 5.31677 3.34667C5.72646 3.24034 6.27375 3.24034 6.69281 3.3498Z" fill="#137AD4"/>
</svg>
