<svg width="16" height="16" viewBox="0 0 16 16" fill="none" xmlns="http://www.w3.org/2000/svg">
<path d="M9.30469 9.97656H0.921875V7.59375H9.24219C9.91406 7.59375 10.4661 7.48698 10.8984 7.27344C11.3359 7.0599 11.6589 6.76302 11.8672 6.38281C12.0807 6.0026 12.1849 5.55729 12.1797 5.04688C12.1849 4.54688 12.0807 4.09896 11.8672 3.70313C11.6589 3.30208 11.3411 2.98698 10.9141 2.75781C10.4922 2.52344 9.95573 2.40625 9.30469 2.40625H6.16406V16H3.27344V0H9.30469C10.5443 0 11.5937 0.223958 12.4531 0.671875C13.3125 1.11458 13.9635 1.71615 14.4062 2.47656C14.8542 3.23177 15.0781 4.08073 15.0781 5.02344C15.0781 6.0026 14.8516 6.86458 14.3984 7.60938C13.9453 8.34896 13.2891 8.92969 12.4297 9.35156C11.5703 9.76823 10.5286 9.97656 9.30469 9.97656ZM9.67187 11.1641V13.5469H0.921875V11.1641H9.67187Z" fill="#137AD4"/>
</svg>
