<svg width="69" height="20" viewBox="0 0 69 20" fill="none" xmlns="http://www.w3.org/2000/svg">
<path d="M23.846 4.77783H29.8076V12.4167H28.7312V5.72228H24.8948V12.4167H23.8184V4.77783H23.846Z" fill="white"/>
<path d="M34.3338 6.8335C35.9622 6.8335 37.2594 8.02794 37.2594 9.69461C37.2594 11.3613 35.9622 12.5835 34.3338 12.5835C32.7054 12.5835 31.4082 11.3613 31.4082 9.69461C31.4358 8.02794 32.733 6.8335 34.3338 6.8335ZM34.3614 11.6391C35.3826 11.6391 36.2382 10.8057 36.2382 9.66683C36.2382 8.52794 35.3826 7.72238 34.3614 7.72238C33.3402 7.72238 32.4846 8.52794 32.4846 9.66683C32.4846 10.8335 33.3126 11.6391 34.3614 11.6391Z" fill="white"/>
<path d="M38.8052 6.94434H39.854V9.16656H40.6268L42.1172 6.97211H43.304L41.4824 9.58323V9.611L43.5248 12.4443H42.2828L40.6544 10.0832H39.8816V12.4443H38.8328V6.94434H38.8052Z" fill="white"/>
<path d="M45.0427 13.8054C45.4843 13.8054 45.8155 13.4999 46.0363 12.9999L46.3123 12.361L44.0215 6.94434H45.1807L46.5331 10.5277C46.6435 10.8054 46.7263 11.1943 46.7263 11.1943H46.7539C46.7539 11.1943 46.8367 10.8332 46.9471 10.5554L48.2719 6.97211H49.4035L46.8367 13.4166C46.5055 14.2777 45.8431 14.6943 45.0703 14.6943C44.4631 14.6943 44.0215 14.361 44.0215 14.361L44.3803 13.5554C44.4079 13.5554 44.7115 13.8054 45.0427 13.8054Z" fill="white"/>
<path d="M50.7009 6.94434H55.4481V12.4166H54.3993V7.83322H51.7221V12.4166H50.6733V6.94434H50.7009Z" fill="white"/>
<path d="M60.1125 9.02794H60.3885V8.91683C60.3885 8.02794 59.8641 7.72239 59.2017 7.72239C58.6773 7.72239 58.1253 7.94461 57.6837 8.25016L57.2697 7.47239C57.7113 7.11127 58.5393 6.8335 59.3121 6.8335C60.6645 6.8335 61.4649 7.5835 61.4649 8.97239V12.4446H60.4989V11.8891C60.4989 11.6391 60.5265 11.4446 60.5265 11.4446H60.4989C60.1953 12.0835 59.5329 12.5557 58.7049 12.5557C57.7665 12.5557 56.8833 11.9724 56.8833 10.9446C56.8833 9.22239 58.9809 9.02794 60.1125 9.02794ZM58.9257 11.7224C59.8365 11.7224 60.3885 10.8057 60.3885 9.97239V9.77794H60.1125C59.3397 9.77794 57.9045 9.8335 57.9045 10.8613C57.9045 11.2779 58.2633 11.7224 58.9257 11.7224Z" fill="white"/>
<path d="M63.2588 6.9445H64.2524V10.2223C64.2524 10.5278 64.2248 10.9167 64.2248 10.9445H64.2524C64.3076 10.8334 64.556 10.4723 64.7492 10.2223L67.0676 6.9445H68.0888V12.4167H67.0676V9.16672C67.0676 8.91672 67.0952 8.52783 67.0952 8.4445H67.0676C67.04 8.55561 66.764 8.91672 66.5984 9.16672L64.2524 12.4445H63.2588V6.9445V6.9445ZM64.0592 4.9445V4.77783H64.8872V4.91672C64.8872 5.38894 65.2736 5.63894 65.6324 5.63894C66.0188 5.63894 66.4052 5.38894 66.4052 4.91672V4.77783H67.2332V4.9445C67.2332 5.83339 66.488 6.33339 65.6324 6.33339C64.8044 6.33339 64.0592 5.83339 64.0592 4.9445Z" fill="white"/>
<path d="M24.702 15.8335C24.978 15.8335 25.3092 15.9446 25.53 16.1668L25.3368 16.4724C25.1988 16.3335 24.9504 16.2224 24.7296 16.2224C24.288 16.2224 23.9844 16.5557 23.9844 17.0002C23.9844 17.4446 24.3156 17.7779 24.7572 17.7779C25.0056 17.7779 25.254 17.6668 25.4196 17.4724L25.5852 17.7779C25.392 18.0002 25.0608 18.1391 24.7296 18.1391C24.0396 18.1391 23.5704 17.6391 23.5704 17.0002C23.5428 16.3335 24.0396 15.8335 24.702 15.8335Z" fill="white"/>
<path d="M27.1309 15.8335C27.7933 15.8335 28.3177 16.3057 28.3177 16.9724C28.3177 17.6391 27.7933 18.1113 27.1585 18.1113C26.4961 18.1113 25.9717 17.6391 25.9717 16.9724C25.9441 16.3335 26.4685 15.8335 27.1309 15.8335ZM27.1309 17.7779C27.5449 17.7779 27.8761 17.4446 27.8761 17.0002C27.8761 16.5557 27.5449 16.2224 27.1309 16.2224C26.7169 16.2224 26.3857 16.5557 26.3857 17.0002C26.3857 17.4446 26.7169 17.7779 27.1309 17.7779Z" fill="white"/>
<path d="M31.519 14.9727C31.9054 14.9727 32.347 15.0838 32.623 15.3615L32.4022 15.6949C32.1814 15.5004 31.8502 15.3615 31.519 15.3615C30.8014 15.3615 30.3874 15.8893 30.3874 16.5282C30.3874 17.1671 30.8014 17.7227 31.519 17.7227C31.8502 17.7227 32.209 17.5838 32.4574 17.3338L32.6782 17.6393C32.4298 17.8893 32.0434 18.1115 31.4914 18.1115C30.553 18.1115 29.9458 17.4171 29.9458 16.5282C29.9734 15.6393 30.6082 14.9727 31.519 14.9727Z" fill="white"/>
<path d="M34.1137 15.2503L34.8865 14.917L35.0245 15.2503L34.1965 15.6114C33.7549 15.8059 33.5617 16.0559 33.5341 16.4726C33.7273 16.167 34.0033 16.0837 34.3069 16.0837C34.8589 16.0837 35.2177 16.4726 35.2177 17.0837C35.2177 17.6948 34.8037 18.1114 34.1965 18.1114C33.4513 18.1114 33.1201 17.5559 33.1201 16.8059C33.1201 16.0281 33.3685 15.5559 34.1137 15.2503ZM34.1689 17.7781C34.5001 17.7781 34.8037 17.5281 34.8037 17.1114C34.8037 16.6948 34.5277 16.417 34.1965 16.417C33.8377 16.417 33.5617 16.6948 33.5617 17.0837C33.5617 17.5281 33.8377 17.7781 34.1689 17.7781Z" fill="white"/>
<path d="M36.791 15.8335C37.3982 15.8335 37.7294 16.3057 37.7294 16.8613C37.7294 16.9168 37.7294 16.9724 37.7018 17.0279H36.1562C36.1838 17.5002 36.515 17.7502 36.9014 17.7502C37.1222 17.7502 37.3706 17.6391 37.5362 17.5002L37.7018 17.8057C37.481 18.0002 37.1498 18.1113 36.8462 18.1113C36.1562 18.1113 35.687 17.6113 35.687 16.9724C35.7146 16.3057 36.1838 15.8335 36.791 15.8335ZM37.3154 16.7502C37.3154 16.3613 37.067 16.1668 36.791 16.1668C36.4598 16.1668 36.2114 16.3891 36.1562 16.7502H37.3154Z" fill="white"/>
<path d="M38.3643 15.8891H38.7507V16.0835C38.7507 16.1668 38.7507 16.2502 38.7507 16.2502C38.8887 15.9724 39.1647 15.8335 39.4683 15.8335C40.0479 15.8335 40.4343 16.3057 40.4343 16.9724C40.4343 17.6668 40.0203 18.1113 39.4407 18.1113C39.1647 18.1113 38.9163 17.9724 38.7783 17.7502C38.7783 17.7502 38.8059 17.8335 38.8059 17.9446V18.9446H38.3643V15.8891ZM39.3855 17.7779C39.7167 17.7779 40.0203 17.5002 40.0203 17.0002C40.0203 16.5279 39.7719 16.2224 39.4131 16.2224C39.0819 16.2224 38.7783 16.4446 38.7783 17.0002C38.7507 17.3891 38.9715 17.7779 39.3855 17.7779Z" fill="white"/>
<path d="M41.9247 15.2503L42.6975 14.917L42.8355 15.2503L42.0075 15.6114C41.5659 15.8059 41.3728 16.0559 41.3452 16.4726C41.5384 16.167 41.8144 16.0837 42.118 16.0837C42.67 16.0837 43.0287 16.4726 43.0287 17.0837C43.0287 17.6948 42.6147 18.1114 42.0075 18.1114C41.2624 18.1114 40.9312 17.5559 40.9312 16.8059C40.9588 16.0281 41.1795 15.5559 41.9247 15.2503ZM42.0075 17.7781C42.3387 17.7781 42.6423 17.5281 42.6423 17.1114C42.6423 16.6948 42.3664 16.417 42.0352 16.417C41.6764 16.417 41.4004 16.6948 41.4004 17.0837C41.4004 17.5281 41.6763 17.7781 42.0075 17.7781Z" fill="white"/>
<path d="M44.7948 16.7224H44.9052V16.6669C44.9052 16.3058 44.712 16.1947 44.436 16.1947C44.2152 16.1947 43.9944 16.278 43.8288 16.4169L43.6632 16.1113C43.8288 15.9724 44.16 15.8613 44.4636 15.8613C45.0156 15.8613 45.3191 16.1669 45.3191 16.7224V18.1113H44.9328V17.8891C44.9328 17.778 44.9328 17.7224 44.9328 17.7224C44.7948 17.9724 44.5464 18.1669 44.2152 18.1669C43.8288 18.1669 43.4976 17.9169 43.4976 17.528C43.4976 16.8058 44.3532 16.7224 44.7948 16.7224ZM44.3256 17.8058C44.6844 17.8058 44.9052 17.4447 44.9052 17.1113V17.028H44.7948C44.4912 17.028 43.9116 17.0558 43.9116 17.4447C43.9116 17.6391 44.0496 17.8058 44.3256 17.8058Z" fill="white"/>
<path d="M46.0371 15.8892H46.4511V16.778H47.5551V15.8892H47.9691V18.0836H47.5551V17.1392H46.4511V18.0836H46.0371V15.8892Z" fill="white"/>
<path d="M48.7417 15.8892H49.1557V16.778H49.4593L50.0665 15.8892H50.5357L49.8181 16.9447L50.6185 18.0836H50.1217L49.4593 17.1392H49.1557V18.0836H48.7417V15.8892V15.8892Z" fill="white"/>
<path d="M52.0264 15.8335C52.6888 15.8335 53.2132 16.3057 53.2132 16.9724C53.2132 17.6391 52.6888 18.1113 52.054 18.1113C51.3916 18.1113 50.8672 17.6391 50.8672 16.9724C50.8672 16.3335 51.3916 15.8335 52.0264 15.8335ZM52.0264 17.7779C52.4404 17.7779 52.7716 17.4446 52.7716 17.0002C52.7716 16.5557 52.4404 16.2224 52.0264 16.2224C51.6124 16.2224 51.2812 16.5557 51.2812 17.0002C51.2812 17.4446 51.6124 17.7779 52.0264 17.7779Z" fill="white"/>
<path d="M53.9027 15.8892H54.3719L54.9239 17.1392C54.9791 17.278 55.0343 17.4447 55.0343 17.4447C55.0343 17.4447 55.0895 17.278 55.1447 17.1392L55.7243 15.8892H56.1935L56.3867 18.0836H55.9727L55.8899 16.778C55.8899 16.6392 55.8899 16.3892 55.8899 16.3892C55.8899 16.3892 55.8347 16.528 55.7519 16.7225L55.2275 17.8058H54.8687L54.3443 16.7225C54.2891 16.5558 54.2063 16.3892 54.2063 16.3892C54.2063 16.3892 54.2063 16.6392 54.2063 16.778L54.1235 18.0836H53.7095L53.9027 15.8892Z" fill="white"/>
<path d="M10.7635 0.333496C10.4599 0.333496 10.1839 0.361274 9.90794 0.444607C9.63194 0.361274 9.35594 0.333496 9.05234 0.333496C7.39634 0.333496 6.04395 1.52794 6.04395 3.02794H6.45795C6.45795 1.77794 7.61714 0.750163 9.05234 0.750163C9.07994 0.750163 9.13514 0.750163 9.16274 0.750163C8.30714 1.22238 7.75514 2.05572 7.75514 3.02794H8.16914C8.16914 2.02794 8.88674 1.19461 9.90794 0.889051C10.9291 1.19461 11.6467 2.05572 11.6467 3.02794H12.0607C12.0607 2.0835 11.5087 1.25016 10.6531 0.750163C10.6807 0.750163 10.7359 0.750163 10.7635 0.750163C12.1987 0.750163 13.3579 1.77794 13.3579 3.02794H13.7995C13.7995 1.55572 12.4195 0.333496 10.7635 0.333496Z" fill="white"/>
<path d="M0.606934 19.7223L1.95933 3.52783H17.0289L17.8017 12.8056L0.606934 19.7223Z" fill="white"/>
<path d="M12.2265 8.36133L11.8953 15.0835L16.7529 19.7224H0.606934L12.2265 8.36133Z" fill="#45D35C"/>
</svg>
