<svg width="89" height="20" viewBox="0 0 89 20" fill="none" xmlns="http://www.w3.org/2000/svg">
<path d="M35.6313 5.18517H33.7871C30.0985 5.18517 26.9264 14.5926 31.2789 14.5926H34.0821C35.7051 14.5926 36.9592 15.1852 36.369 16.7407L35.7051 18.8889H32.6805H30.2461C27.1477 18.8889 25.0822 17.3333 24.4182 14.9629C23.6067 12.4444 24.7133 7.25924 27.8854 3.85183C29.7297 1.85183 32.3117 0.740723 35.6313 0.740723H41.7543L40.7953 3.48146C40.1313 5.25924 38.8772 5.11109 38.2133 5.11109H35.6313V5.18517Z" fill="white"/>
<path d="M66.9839 14.5927C64.1806 14.5927 59.9757 14.5927 57.0986 14.5927C55.4757 14.5927 54.738 15.0372 54.4429 16.0001L53.4839 19.0372C56.2872 19.0372 60.4921 19.0372 63.3691 19.0372C64.9921 19.0372 65.7298 18.5927 66.0249 17.6298L66.9839 14.5927ZM71.6314 0.814941C68.8281 0.814941 64.6232 0.814941 61.7462 0.814941C60.1232 0.814941 59.3855 1.25939 59.0904 2.22235L58.2052 5.25939C61.0085 5.25939 65.2134 5.25939 68.0904 5.25939C69.7134 5.25939 70.4511 4.81494 70.7462 3.85198L71.6314 0.814941ZM69.3445 7.70383C66.5413 7.70383 62.3363 7.70383 59.4593 7.70383C57.8363 7.70383 57.0986 8.14828 56.8036 9.11124L55.8445 12.1483C58.6478 12.1483 62.8527 12.1483 65.7298 12.1483C67.3527 12.1483 68.0904 11.7038 68.3855 10.7409L69.3445 7.70383Z" fill="white"/>
<path d="M46.9181 5.18531H49.3526C51.4181 5.18531 50.9755 7.77791 49.9427 10.3705C48.9837 12.5927 47.3608 14.5927 45.4427 14.5927H41.3853C39.7624 14.5927 39.0247 15.0372 38.7296 16.0001L37.623 18.9631H40.6476H43.5985C46.1804 18.9631 48.3198 18.7409 50.7542 16.5186C53.3362 14.1483 56.4345 8.00013 55.9181 4.44457C55.5493 1.62976 54.0001 0.814941 50.3853 0.814941H43.746L39.9099 12.0742H42.3444C43.8198 12.0742 44.4837 12.0742 45.2952 10.0001L46.9181 5.18531Z" fill="white"/>
<path d="M67.7217 18.9629H72.3692L74.361 13.1852L76.4266 11.4815L78.0496 16.6666C78.5659 18.2963 79.0823 18.9629 80.1889 18.9629H83.7299L80.0414 8.8148L88.8938 0.740723H83.1397L77.8282 6.5185C77.1643 7.18517 76.5741 7.85183 75.9102 8.59257H75.8364L78.4922 0.814796H73.9184L67.7217 18.9629Z" fill="white"/>
<path d="M7.45083 0.296339C12.7623 -1.03699 18.1476 2.14819 19.4754 7.48152C20.8033 12.8149 17.6312 18.2223 12.3197 19.5556C7.00821 20.8889 1.69674 17.6297 0.295096 12.3704C-1.03277 7.03708 2.13936 1.62967 7.45083 0.296339Z" fill="white"/>
<path d="M5.38512 6.51858C6.71299 6.81488 7.96709 6.96303 9.4425 7.0371C11.8769 7.11118 14.4589 7.0371 17.5572 7.0371H18.6638C18.8851 7.0371 18.9589 7.3334 18.7376 7.40747L17.7786 7.62969C11.9507 9.40747 7.45069 11.5556 4.20479 16.963C4.05725 17.1112 3.83594 17.1112 3.83594 16.8149C4.13102 14.2964 4.49987 12.2964 5.6802 10.0741C5.01627 9.18525 5.23758 8.14821 4.49987 6.59266C4.4261 6.37044 4.35233 6.29636 4.27856 6.22229C4.13102 6.00007 4.35233 5.85192 4.49987 6.00006C5.16381 6.14821 4.79495 6.37043 5.38512 6.51858Z" fill="url(#paint0_radial)"/>
<path d="M5.3854 6.51848C6.71327 6.81478 7.96737 6.96292 9.44278 7.037C11.5821 7.11107 13.869 7.037 16.5985 7.037C11.287 8.7407 7.08212 11.1851 3.98376 15.8518C4.27884 13.7777 4.64769 12 5.60671 10.074C5.45917 9.85181 5.31163 9.62959 5.16409 9.40737C5.23786 9.25922 5.23786 9.18515 5.31163 9.11107C4.72146 8.29626 3.98376 7.25922 3.31982 5.99996C3.31982 5.85181 3.46736 5.77774 3.54114 5.85181C4.20507 6.07404 4.79523 6.37033 5.3854 6.51848Z" fill="url(#paint1_radial)"/>
<path d="M4.42612 4.66653C5.75399 4.96283 7.08186 5.18505 8.4835 5.25912C10.9179 5.3332 13.4999 5.25912 16.5983 5.25912H17.7048C17.9261 5.25912 17.9999 5.55542 17.7786 5.62949L16.8196 5.85172C10.9917 7.6295 6.27038 10.2221 3.02448 15.5554C2.87694 15.7776 2.65563 15.7776 2.7294 15.4813C3.17202 13.0369 3.61465 10.5184 4.7212 8.29616C4.05727 7.40727 3.31956 6.29616 2.65563 4.81468C2.65563 4.59246 2.58186 4.51839 2.58186 4.37024C2.43432 4.14801 2.65563 3.99986 2.80317 4.14801C3.02448 4.22209 3.83596 4.59246 4.42612 4.66653Z" fill="url(#paint2_radial)"/>
<defs>
<radialGradient id="paint0_radial" cx="0" cy="0" r="1" gradientUnits="userSpaceOnUse" gradientTransform="translate(9.5244 10.1224) scale(14.2318 10.528)">
<stop stop-color="#AEC905"/>
<stop offset="0.31" stop-color="#ABC708"/>
<stop offset="0.92" stop-color="#007631"/>
<stop offset="1" stop-color="#007631"/>
</radialGradient>
<radialGradient id="paint1_radial" cx="0" cy="0" r="1" gradientUnits="userSpaceOnUse" gradientTransform="translate(8.3437 9.59451) scale(12.5691 9.49524)">
<stop stop-color="#AEC905"/>
<stop offset="0.31" stop-color="#ABC708"/>
<stop offset="0.92" stop-color="#007631"/>
<stop offset="1" stop-color="#007631"/>
</radialGradient>
<radialGradient id="paint2_radial" cx="0" cy="0" r="1" gradientUnits="userSpaceOnUse" gradientTransform="translate(8.35172 8.4605) scale(14.5572 11.0067)">
<stop stop-color="#AEC905"/>
<stop offset="0.31" stop-color="#ABC708"/>
<stop offset="0.92" stop-color="#007631"/>
<stop offset="1" stop-color="#007631"/>
</radialGradient>
</defs>
</svg>
