<svg width="17" height="18" viewBox="0 0 17 18" fill="none" xmlns="http://www.w3.org/2000/svg">
<path d="M6.66016 1.03414C5.12295 1.23237 3.7129 1.89438 2.59459 2.94911C0.754427 4.68829 -0.0384891 7.26901 0.511316 9.74126C1.36408 13.5675 5.12295 16.0135 8.96036 15.2393C9.82808 15.0635 10.7594 14.6746 11.5112 14.1734C11.7393 14.02 11.9413 13.8779 11.9562 13.8555C11.9712 13.833 12.6257 14.4576 13.5196 15.3478C14.5594 16.3875 15.1017 16.9037 15.1952 16.9411C15.3785 17.0196 15.7563 17.0196 15.9096 16.9411C16.2799 16.7541 16.4444 16.3688 16.3285 15.9612C16.2687 15.7517 16.2275 15.7106 14.7127 14.1921C13.8301 13.3056 13.1793 12.6249 13.2017 12.61C13.2803 12.5576 13.7777 11.7797 13.961 11.4131C15.2027 8.94087 14.9259 6.00857 13.2503 3.80935C12.0759 2.2684 10.2881 1.25107 8.36194 1.0304C7.97296 0.989262 7.01173 0.989262 6.66016 1.03414ZM8.44796 2.69478C10.4377 3.01644 12.1582 4.4751 12.7978 6.37885C13.0222 7.05582 13.0708 7.37373 13.0708 8.17413C13.0708 8.78752 13.0596 8.96331 12.9885 9.28496C12.723 10.5117 12.1283 11.5328 11.2007 12.3594C10.4901 12.9915 9.61489 13.4291 8.63123 13.6423C8.11508 13.7545 7.03791 13.7619 6.52925 13.661C4.29637 13.2084 2.63199 11.6076 2.10837 9.40839C1.96998 8.82866 1.94754 7.87866 2.05227 7.25779C2.24676 6.13574 2.73298 5.16329 3.51467 4.35168C4.10188 3.73829 4.70405 3.33061 5.4633 3.02392C6.42079 2.63868 7.41941 2.53021 8.44796 2.69478Z" fill="white" stroke="white" stroke-width="0.5"/>
</svg>
