<svg width="18" height="18" viewBox="0 0 18 18" fill="none" xmlns="http://www.w3.org/2000/svg">
<path d="M6.99948 3.70978C6.90677 3.80229 6.83322 3.91218 6.78304 4.03315C6.73286 4.15413 6.70703 4.28381 6.70703 4.41478C6.70703 4.54575 6.73286 4.67543 6.78304 4.7964C6.83322 4.91738 6.90677 5.02726 6.99948 5.11978L10.8795 8.99978L6.99948 12.8798C6.90689 12.9724 6.83345 13.0823 6.78335 13.2032C6.73324 13.3242 6.70745 13.4538 6.70745 13.5848C6.70745 13.7157 6.73324 13.8454 6.78335 13.9663C6.83345 14.0873 6.90689 14.1972 6.99948 14.2898C7.09206 14.3824 7.20197 14.4558 7.32293 14.5059C7.4439 14.556 7.57354 14.5818 7.70448 14.5818C7.83541 14.5818 7.96505 14.556 8.08602 14.5059C8.20698 14.4558 8.31689 14.3824 8.40948 14.2898L12.9995 9.69978C13.0922 9.60726 13.1657 9.49738 13.2159 9.3764C13.2661 9.25543 13.2919 9.12575 13.2919 8.99478C13.2919 8.86381 13.2661 8.73413 13.2159 8.61315C13.1657 8.49218 13.0922 8.38229 12.9995 8.28978L8.40948 3.69978C8.02948 3.31978 7.38948 3.31978 6.99948 3.70978Z" fill="white"/>
</svg>
