<svg width="85" height="20" viewBox="0 0 85 20" fill="none" xmlns="http://www.w3.org/2000/svg">
<g filter="url(#filter0_d)">
<path d="M85 0H0V20H85V0Z" fill="#FFDD2D"/>
<path d="M9.50091 8.44684H6.61719V6.65381H14.4569V8.43283H11.5871V13.3357H9.49742L9.50091 8.44684Z" fill="black"/>
<path d="M22.4812 6.65381V13.3076H20.4612V9.45542L16.9784 13.3321H15.1987V6.65381H17.2187V10.5445L20.698 6.65381H22.4812Z" fill="black"/>
<path d="M25.9604 13.3321H23.9404V6.65381H25.9604V9.10522H29.2063V6.65381H31.2263V13.3076H29.2063V10.8562H25.9604V13.3321Z" fill="black"/>
<path d="M32.6855 13.3321V6.65381H34.7055V8.44684H36.7952C37.2942 8.42083 37.7939 8.48245 38.2719 8.62894C38.7284 8.7867 39.1218 9.08902 39.3931 9.49059C39.6644 9.89215 39.7989 10.3713 39.7764 10.8562C39.794 11.3839 39.6305 11.9016 39.3134 12.3224C38.9963 12.7433 38.545 13.0417 38.0351 13.1676C37.6217 13.2781 37.195 13.33 36.7673 13.3216L32.6855 13.3321ZM34.7055 11.7212H36.4469C36.7155 11.7454 36.9862 11.712 37.241 11.6232C37.3898 11.5584 37.5165 11.4512 37.6056 11.315C37.6947 11.1787 37.7423 11.0193 37.7425 10.8562C37.7459 10.6937 37.6958 10.5345 37.6001 10.4035C37.5044 10.2724 37.3684 10.1767 37.2131 10.1313C36.9601 10.0567 36.6961 10.0271 36.433 10.0438H34.6916L34.7055 11.7212Z" fill="black"/>
<path d="M42.7265 13.3321H40.7065V6.65381H42.7265V9.17526H43.2803L45.7182 6.66782H48.2537L45.0217 9.85815L48.3791 13.3321H45.6904L43.2803 10.8107H42.7265V13.3321Z" fill="black"/>
<path d="M56.9188 10.0124C56.9188 12.0015 55.2888 13.5424 52.5862 13.5424C49.8836 13.5424 48.2397 12.0015 48.2397 10.0124C48.2397 8.02322 49.8697 6.48584 52.5897 6.48584C55.3097 6.48584 56.9188 8.02673 56.9188 10.0124ZM54.8013 10.0124C54.8013 8.92324 53.9236 8.12478 52.5862 8.12478C51.2488 8.12478 50.3712 8.92324 50.3712 10.0124C50.3712 11.1015 51.2349 11.907 52.5897 11.907C53.9445 11.907 54.8013 11.105 54.8013 10.0124Z" fill="black"/>
<path d="M67.6457 9.99834C67.6457 11.9034 66.1272 12.898 63.5778 12.954V13.6264H61.5578V12.9575C59.0224 12.9015 57.5039 11.9069 57.5039 10.0018C57.5039 8.09674 59.0224 7.02162 61.5578 6.96559V6.30371H63.5778V6.9761C66.1272 7.00411 67.6457 8.09674 67.6457 9.99834ZM61.5578 8.40492C60.1647 8.46095 59.5518 9.10532 59.5518 9.99834C59.5518 10.8913 60.1647 11.4692 61.5578 11.5252V8.40492ZM65.5839 9.99834C65.5839 9.10532 64.9849 8.46095 63.5778 8.40492V11.5252C64.9849 11.4692 65.5839 10.8949 65.5839 9.99834Z" fill="black"/>
<path d="M78.362 9.99834C78.362 11.9034 76.8435 12.898 74.2941 12.954V13.6264H72.2741V12.9575C69.7387 12.9015 68.2202 11.9069 68.2202 10.0018C68.2202 8.09674 69.7387 7.02162 72.2741 6.96559V6.30371H74.2941V6.9761C76.8539 7.00411 78.362 8.09674 78.362 9.99834ZM72.2846 8.40492C70.8915 8.46095 70.2785 9.10532 70.2785 9.99834C70.2785 10.8913 70.8915 11.4692 72.2846 11.5252V8.40492ZM76.3106 9.99834C76.3106 9.10532 75.7116 8.46095 74.3046 8.40492V11.5252C75.7116 11.4692 76.3106 10.8949 76.3106 9.99834Z" fill="black"/>
</g>
<defs>
<filter id="filter0_d" x="-4" y="0" width="93" height="28" filterUnits="userSpaceOnUse" color-interpolation-filters="sRGB">
<feFlood flood-opacity="0" result="BackgroundImageFix"/>
<feColorMatrix in="SourceAlpha" type="matrix" values="0 0 0 0 0 0 0 0 0 0 0 0 0 0 0 0 0 0 127 0"/>
<feOffset dy="4"/>
<feGaussianBlur stdDeviation="2"/>
<feColorMatrix type="matrix" values="0 0 0 0 0 0 0 0 0 0 0 0 0 0 0 0 0 0 0.25 0"/>
<feBlend mode="normal" in2="BackgroundImageFix" result="effect1_dropShadow"/>
<feBlend mode="normal" in="SourceGraphic" in2="effect1_dropShadow" result="shape"/>
</filter>
</defs>
</svg>
