<svg width="14" height="14" viewBox="0 0 14 14" fill="none" xmlns="http://www.w3.org/2000/svg">
<path d="M6.43653 0.0285067C6.07326 0.0775978 5.74598 0.179053 5.35653 0.368872C4.42707 0.823782 3.79216 1.60597 3.50088 2.66961C3.44197 2.88234 3.42888 3.01324 3.42888 3.49434C3.42888 4.01143 3.4387 4.09652 3.51725 4.39434C3.8707 5.70344 4.89834 6.67217 6.23035 6.9438C6.75071 7.0518 7.51653 7.00271 8.04017 6.82599C9.13654 6.46271 9.99727 5.53653 10.3049 4.39434C10.3835 4.09652 10.3933 4.01143 10.3933 3.49434C10.3933 2.87579 10.3573 2.68597 10.1642 2.19506C9.5849 0.722327 8.04017 -0.174403 6.43653 0.0285067Z" fill="white"/>
<path d="M6.30562 7.70308C6.25326 7.70963 6.07653 7.73253 5.91289 7.75217C5.54634 7.79799 4.95725 7.94199 4.57107 8.07617C2.29324 8.88454 0.719054 10.8449 0.637236 12.9853C0.617599 13.5122 0.643781 13.6169 0.846691 13.81C1.05615 14.0129 0.679781 13.9998 6.90453 13.9998C11.0642 13.9998 12.6155 13.99 12.7071 13.9638C12.874 13.9115 13.0507 13.7609 13.1358 13.5973C13.198 13.4729 13.2013 13.4271 13.1849 12.9853C13.0966 10.6387 11.2376 8.55399 8.6489 7.89617C8.08926 7.75544 7.74235 7.7129 7.05835 7.69981C6.69835 7.69326 6.36126 7.69326 6.30562 7.70308Z" fill="white"/>
</svg>
