<svg width="13" height="15" viewBox="0 0 13 15" fill="none" xmlns="http://www.w3.org/2000/svg">
<g opacity="0.6">
<path d="M6.04524 0.839733C5.6982 0.886629 5.38555 0.983549 5.01351 1.16488C4.12559 1.59946 3.51906 2.34668 3.24081 3.36278C3.18453 3.566 3.17202 3.69106 3.17202 4.15065C3.17202 4.64463 3.1814 4.72592 3.25644 5.01042C3.5941 6.261 4.5758 7.18643 5.84827 7.44593C6.34538 7.5491 7.07697 7.50221 7.5772 7.33338C8.62456 6.98634 9.44682 6.10156 9.7407 5.01042C9.81574 4.72592 9.82512 4.64463 9.82512 4.15065C9.82512 3.55975 9.79073 3.37841 9.60627 2.90945C9.05289 1.50254 7.5772 0.645892 6.04524 0.839733Z" fill="white"/>
<path d="M5.92018 8.17127C5.87015 8.17752 5.70133 8.19941 5.545 8.21816C5.19484 8.26194 4.63208 8.3995 4.26316 8.52768C2.08714 9.29992 0.58332 11.1727 0.505158 13.2174C0.4864 13.7207 0.511411 13.8208 0.705252 14.0052C0.905345 14.1991 0.545802 14.1866 6.49232 14.1866C10.466 14.1866 11.948 14.1772 12.0355 14.1522C12.195 14.1022 12.3638 13.9583 12.4451 13.802C12.5045 13.6832 12.5076 13.6394 12.492 13.2174C12.4076 10.9757 10.6317 8.98415 8.15872 8.35573C7.62409 8.22129 7.29269 8.18065 6.63926 8.16814C6.29535 8.16189 5.97333 8.16189 5.92018 8.17127Z" fill="white"/>
</g>
</svg>
