<svg width="50" height="16" viewBox="0 0 50 16" fill="none" xmlns="http://www.w3.org/2000/svg">
<mask id="mask0" mask-type="alpha" maskUnits="userSpaceOnUse" x="0" y="0" width="50" height="16">
<rect width="50" height="16" fill="#C4C4C4"/>
</mask>
<g mask="url(#mask0)">
<path d="M21.4233 15.7692H17.4185L19.9234 0.280762H23.928L21.4233 15.7692Z" fill="white"/>
<path d="M35.9411 0.659404C35.1512 0.346017 33.8983 0 32.3491 0C28.3942 0 25.6092 2.10895 25.5921 5.12412C25.5593 7.3487 27.5861 8.58429 29.102 9.32603C30.6514 10.084 31.1781 10.5787 31.1781 11.2543C31.1624 12.2919 29.9261 12.7702 28.7731 12.7702C27.1742 12.7702 26.3174 12.5236 25.0155 11.9463L24.4882 11.6989L23.9277 15.1757C24.867 15.6036 26.5975 15.9834 28.3942 16C32.5964 16 35.3321 13.9237 35.3645 10.7105C35.3805 8.94739 34.3102 7.59639 32.0029 6.49242C30.6022 5.78374 29.7443 5.30589 29.7443 4.58078C29.7608 3.9216 30.4699 3.24643 32.051 3.24643C33.353 3.21336 34.3096 3.52631 35.0342 3.83947L35.3965 4.00394L35.9411 0.659404Z" fill="white"/>
<path d="M41.2635 10.2822C41.5933 9.39239 42.8624 5.94865 42.8624 5.94865C42.8458 5.98172 43.1916 5.04244 43.3893 4.46581L43.6692 5.80039C43.6692 5.80039 44.4276 9.5078 44.5923 10.2822C43.9664 10.2822 42.0545 10.2822 41.2635 10.2822ZM46.2069 0.280762H43.1092C42.1539 0.280762 41.4282 0.560641 41.016 1.56584L35.0674 15.769H39.2695C39.2695 15.769 39.9613 13.8573 40.11 13.4456C40.571 13.4456 44.6588 13.4456 45.2519 13.4456C45.3669 13.9894 45.7297 15.769 45.7297 15.769H49.4378L46.2069 0.280762Z" fill="white"/>
<path d="M14.0731 0.280762L10.1511 10.8424L9.72248 8.70036C8.99738 6.22875 6.7233 3.5434 4.18555 2.20816L7.77799 15.7528H12.013L18.3079 0.280762H14.0731Z" fill="white"/>
<path d="M6.50928 0.280762H0.0659182L0 0.59371C5.02623 1.87901 8.355 4.97717 9.72264 8.70101L8.32193 1.5827C8.09133 0.593491 7.38265 0.313392 6.50928 0.280762Z" fill="#FAA61A"/>
</g>
</svg>
