<svg width="170" height="32" viewBox="0 0 170 32" fill="none" xmlns="http://www.w3.org/2000/svg">
<g clip-path="url(#clip0_5443_27845)">
<path d="M15.3399 0.396484L11.8424 3.93509V13.5747H5.3076V2.13528L3.55886 0.396484H0V31.9694H5.27693V18.8217H11.8424V28.4613L15.3399 31.9694H25.9551L29.4526 28.4613V3.93509L25.9551 0.426989H15.3399V0.396484ZM24.1757 26.7225H17.15V7.41269L15.3706 5.67389H24.2064V26.7225H24.1757Z" fill="white"/>
<path d="M32.2139 0.396484V5.67389H35.1591V31.9694H40.4667V5.67389H48.965V2.13528L47.2163 0.396484H32.2139Z" fill="white"/>
<path d="M169.199 0H151.589V5.27741H157.756V31.5729H163.032V7.01621L161.284 5.27741H169.199V0Z" fill="#137AD4"/>
<path d="M92.6533 0.396484V31.9694H97.9303V18.7911H106.766L110.264 15.3135V3.93509L106.766 0.426989H92.6533V0.396484ZM104.987 13.5442H97.9609V7.41269L96.2122 5.67389H104.987V13.5442Z" fill="#137AD4"/>
<path d="M77.5585 0.426989L63.4151 0.396484L59.9482 3.93509V15.3136L63.4457 18.7911H72.2815V18.8217H72.3122V31.9999H77.5891V18.8217H86.4249L89.9224 15.3441V3.9656L86.4249 0.426989H77.5585ZM72.2815 13.5442H65.2252V7.41269L63.4764 5.67389H72.2815V13.5442ZM84.6148 13.5748H77.5891V7.4432L75.8404 5.7044H77.5585H84.6148V13.5748Z" fill="#137AD4"/>
<path d="M115.786 0.427002L112.288 3.93511V28.4613L115.786 31.9694H126.401L129.898 28.4613V3.96561L126.401 0.457507H115.786V0.427002ZM124.621 26.753H117.596V7.44321L115.816 5.70441H124.652V26.753H124.621Z" fill="#137AD4"/>
<path d="M135.452 0L131.954 3.53861V28.0648L135.452 31.5729H146.067L149.564 28.0648V22.7874H144.287V26.326H137.231V7.01621L135.452 5.27741H144.287V8.78551H149.564V3.53861L146.067 0H135.452Z" fill="#137AD4"/>
</g>
<defs>
<clipPath id="clip0_5443_27845">
<rect width="169.366" height="32" fill="white"/>
</clipPath>
</defs>
</svg>
