<svg width="25" height="24" viewBox="0 0 25 24" fill="#E4E4E4" xmlns="http://www.w3.org/2000/svg">
<path d="M6.48118 1.63594C6.26555 1.78125 6.1718 1.96406 6.1718 2.24531C6.1718 2.47031 6.20462 2.55469 6.45305 2.98594C6.60774 3.25781 6.7343 3.48281 6.7343 3.4875C6.7343 3.49219 6.60305 3.4875 6.44368 3.47812C5.94212 3.44062 5.65618 3.69375 5.65618 4.17188C5.65618 4.45781 5.75462 4.65469 5.96087 4.78125C6.04055 4.82344 6.48118 4.96406 6.94524 5.08594L7.79368 5.30625L8.14993 5.925C8.3468 6.2625 8.50149 6.54375 8.4968 6.54844C8.49212 6.55312 8.01399 6.43125 7.43743 6.27656C6.32649 5.97656 6.06399 5.94375 5.8343 6.07969C5.39368 6.3375 5.35149 6.98437 5.7593 7.27969C5.82962 7.33125 6.63587 7.575 7.70462 7.86094C8.93743 8.18906 9.54212 8.37187 9.5843 8.42812C9.69212 8.56875 9.97805 9.09844 9.9593 9.12187C9.94524 9.13125 9.5843 9.06562 9.15774 8.97656C8.26243 8.78906 8.13118 8.77969 7.90618 8.89687C7.66243 9.01875 7.53118 9.24375 7.53118 9.53906C7.53118 9.82969 7.57805 9.9 8.28118 10.6875L8.7593 11.2266L8.32337 11.2406L7.89212 11.2547L6.52805 9.89531C5.35618 8.72812 5.13587 8.53125 4.96712 8.48906C4.54055 8.37656 4.09524 8.65312 4.06243 9.04687C4.02962 9.45 4.01087 9.42656 4.92024 10.3547L5.77337 11.2266L5.07493 11.2406L4.37649 11.2547L3.71555 10.5984C3.18118 10.0734 3.01243 9.9375 2.85305 9.89531C2.43118 9.77812 1.98587 10.0594 1.95305 10.4531C1.92493 10.7719 1.95774 10.8797 2.11712 11.0578L2.28587 11.2406L1.63899 11.2594C0.907742 11.2734 0.734304 11.3391 0.570242 11.6391C0.453054 11.8641 0.490554 12.2812 0.645242 12.45C0.856179 12.675 0.963992 12.7031 1.64837 12.7031H2.28587L2.13587 12.8859C1.80774 13.2984 1.8968 13.8141 2.33743 14.0437C2.50149 14.1281 2.81555 14.1281 2.97493 14.0437C3.04524 14.0062 3.38743 13.6875 3.7343 13.3406L4.36712 12.7031H5.08899H5.81555L4.99055 13.5328C4.54055 13.9922 4.14212 14.4187 4.1093 14.4797C4.02024 14.6484 4.04368 15.0422 4.1468 15.1828C4.36243 15.4781 4.77962 15.6047 5.06087 15.4641C5.11712 15.4359 5.77805 14.8031 6.52337 14.0578L7.88743 12.6984L8.33743 12.7125L8.78274 12.7266L8.22493 13.3594C7.91555 13.7062 7.6343 14.0484 7.5968 14.1187C7.44212 14.4094 7.5593 14.8828 7.82649 15.0609C8.0468 15.2016 8.21087 15.1969 9.07805 15.0234C9.5468 14.9297 9.94055 14.8641 9.95462 14.8734C9.96399 14.8875 9.87962 15.0609 9.76712 15.2625L9.55149 15.6281L7.69993 16.125C5.71712 16.6594 5.67024 16.6781 5.5343 17.0016C5.33274 17.4703 5.66555 18 6.15774 18C6.26555 18 6.82805 17.8734 7.41399 17.7141C7.99993 17.5594 8.48274 17.4375 8.48743 17.4469C8.4968 17.4516 8.34212 17.7328 8.14524 18.0703L7.7843 18.6797L6.97337 18.8953C6.0218 19.1484 5.87649 19.2141 5.74524 19.4156C5.6093 19.6406 5.63743 20.1 5.7968 20.2781C5.99368 20.4844 6.15774 20.5453 6.46243 20.5172L6.73899 20.4937L6.57493 20.7797C6.48587 20.9391 6.3593 21.1641 6.29368 21.2812C5.9843 21.825 6.28899 22.4531 6.86555 22.4531C7.24524 22.4531 7.38118 22.3312 7.76555 21.6516L8.03274 21.1875L8.08899 21.3844C8.33274 22.2 9.49993 22.0781 9.49993 21.2391C9.49993 21.1266 9.40149 20.6672 9.2843 20.2219L9.06399 19.4062L9.41087 18.7969C9.60305 18.4641 9.76712 18.1875 9.78118 18.1875C9.79524 18.1875 9.93587 18.6891 10.0999 19.2984C10.2734 19.9453 10.4327 20.4609 10.4937 20.5453C10.6812 20.8078 11.1077 20.8922 11.4218 20.7281C11.5999 20.6344 11.7968 20.3109 11.7968 20.1141C11.7968 20.0531 11.5859 19.2094 11.3234 18.2391C11.0656 17.2734 10.8499 16.4484 10.8452 16.4062C10.8406 16.3078 11.2437 15.6 11.2859 15.6422C11.2999 15.6656 11.4265 16.0078 11.5577 16.4062C11.689 16.8047 11.839 17.2031 11.8906 17.2875C12.1671 17.7375 12.8327 17.7375 13.1093 17.2875C13.1609 17.2031 13.3109 16.8047 13.4421 16.4062C13.5781 16.0078 13.6952 15.6609 13.7093 15.6375C13.7187 15.6187 13.8312 15.7734 13.9531 15.9844L14.1781 16.3687L14.1171 16.5844C14.0796 16.7062 13.8593 17.5312 13.6249 18.4172C13.3062 19.6078 13.1984 20.0766 13.2171 20.2078C13.2968 20.7984 14.0515 21.0234 14.464 20.5828C14.5671 20.4703 14.6468 20.2359 14.8952 19.3172C15.0593 18.6937 15.2046 18.1875 15.2187 18.1875C15.2327 18.1875 15.3968 18.4641 15.589 18.8016L15.9312 19.4156L15.7109 20.2406C15.4577 21.1828 15.4437 21.4687 15.6452 21.6844C15.8093 21.8625 15.9827 21.9375 16.2171 21.9375C16.5031 21.9375 16.714 21.7875 16.864 21.4781L16.9859 21.2297L17.2343 21.6656C17.6093 22.3219 17.7593 22.4531 18.1343 22.4531C18.5374 22.4531 18.8281 22.1484 18.8281 21.7266C18.8281 21.525 18.7906 21.4219 18.5468 21.0047C18.3921 20.7375 18.2656 20.5125 18.2656 20.5078C18.2656 20.4984 18.3968 20.5031 18.5609 20.5172C18.7952 20.5312 18.8796 20.5172 19.0062 20.4422C19.4843 20.1375 19.4562 19.3922 18.9499 19.1719C18.8421 19.125 18.4202 18.9984 18.0077 18.8906C17.5952 18.7828 17.2343 18.6703 17.2015 18.6422C17.1218 18.5625 16.4843 17.4375 16.5171 17.4375C16.5312 17.4375 17.0187 17.5641 17.5952 17.7188C18.1765 17.8734 18.7343 18 18.8374 18C19.0952 18 19.3343 17.8453 19.4421 17.6062C19.5452 17.3766 19.5546 17.2078 19.4656 17.0016C19.3343 16.6781 19.2499 16.6453 17.2859 16.125L15.4484 15.6328L15.2327 15.2672C15.1156 15.0656 15.0312 14.8922 15.0452 14.8781C15.0593 14.8641 15.4624 14.9297 15.9359 15.0281C16.7984 15.2016 16.8031 15.2016 17.0187 15.1219C17.1452 15.075 17.2765 14.9812 17.3374 14.8969C17.4687 14.7094 17.5062 14.3156 17.4077 14.1281C17.3656 14.0531 17.0796 13.7062 16.7702 13.3594L16.2077 12.7266L16.639 12.7125L17.0656 12.6984L18.4015 14.0297C19.1374 14.7656 19.8077 15.3984 19.8921 15.4406C20.1921 15.5906 20.5531 15.5203 20.7921 15.2625C20.914 15.1312 20.9749 14.7797 20.914 14.5453C20.8952 14.4656 20.5624 14.0953 20.0327 13.5609L19.1843 12.7031H19.8874H20.5859L21.1484 13.2703C21.4577 13.5844 21.8046 13.8984 21.9171 13.9734C22.2593 14.1937 22.6296 14.1516 22.9062 13.8562C22.9952 13.7578 23.0234 13.6687 23.0374 13.4391C23.0562 13.1625 23.0468 13.1344 22.8874 12.9234L22.7187 12.7031H23.3562C24.0359 12.7031 24.1437 12.675 24.3546 12.45C24.5093 12.2812 24.5468 11.8641 24.4296 11.6391C24.2656 11.3391 24.0921 11.2734 23.3562 11.2594L22.7093 11.2406L22.8593 11.0859C22.9812 10.9594 23.0187 10.875 23.0374 10.6922C23.0656 10.3828 23.0281 10.2562 22.8546 10.0828C22.6671 9.89531 22.4046 9.825 22.1468 9.89531C21.9827 9.9375 21.8281 10.0641 21.289 10.5984L20.6281 11.25H19.9062H19.1796L20.0421 10.3875C20.8999 9.52969 20.9046 9.525 20.9281 9.29062C20.9562 8.97656 20.9187 8.85 20.7452 8.67656C20.5577 8.48906 20.2952 8.41875 20.0374 8.48437C19.864 8.53125 19.6531 8.71875 18.4718 9.89531L17.1124 11.2547L16.6765 11.2406L16.2406 11.2266L16.8124 10.5797C17.1218 10.2234 17.3984 9.87656 17.4265 9.81562C17.5577 9.46406 17.4124 9.07031 17.0937 8.90156C16.8687 8.77969 16.7515 8.78906 15.8327 8.97656C15.3968 9.06562 15.0265 9.14062 15.0124 9.14062C14.9843 9.14062 15.3827 8.44687 15.4437 8.38125C15.4624 8.3625 16.2968 8.12812 17.2999 7.86094C18.3499 7.575 19.1702 7.33125 19.2359 7.27969C19.6484 6.975 19.6109 6.3375 19.1656 6.07969C18.9359 5.94375 18.6734 5.97656 17.5624 6.27656C16.9859 6.43125 16.5077 6.55312 16.5031 6.54844C16.4984 6.54375 16.6531 6.2625 16.8452 5.925L17.2015 5.31094L18.0968 5.07187C18.9593 4.8375 18.9968 4.82344 19.1749 4.63594C19.3484 4.44844 19.3531 4.43906 19.3343 4.15312C19.3062 3.65625 19.0531 3.44062 18.5562 3.47812C18.3968 3.4875 18.2656 3.49219 18.2656 3.47812C18.2656 3.46875 18.3921 3.24375 18.5468 2.98125C18.7952 2.55469 18.8281 2.47031 18.8281 2.25C18.8281 1.80937 18.5609 1.54688 18.1249 1.54688C17.7546 1.54688 17.6421 1.64062 17.2952 2.22656C17.1265 2.50781 16.9812 2.75156 16.9718 2.76094C16.9671 2.76562 16.9343 2.69531 16.9062 2.59687C16.8077 2.24062 16.5734 2.0625 16.2031 2.0625C15.7671 2.0625 15.4999 2.32031 15.4999 2.7375C15.4999 2.86406 15.5984 3.32812 15.7156 3.77344L15.9359 4.57969L15.6406 5.09062C15.4812 5.37187 15.3171 5.65312 15.2749 5.71875C15.2093 5.82656 15.1906 5.78437 14.9046 4.71094C14.7406 4.09219 14.5765 3.53906 14.5343 3.47812C14.2765 3.08437 13.5781 3.08906 13.3202 3.4875C13.1515 3.74531 13.1702 3.88125 13.6671 5.74219C13.9296 6.72187 14.1499 7.54687 14.1593 7.575C14.1827 7.64062 13.7374 8.40937 13.7046 8.35781C13.6952 8.33906 13.5921 8.04375 13.4843 7.71094C13.1421 6.675 13.1234 6.63281 12.9218 6.49219C12.6077 6.27656 12.1015 6.34219 11.914 6.62812C11.8718 6.68906 11.7265 7.08281 11.5859 7.50469C11.4452 7.92656 11.314 8.30625 11.2999 8.34375C11.2859 8.38594 11.1968 8.27344 11.0515 8.02031C10.8546 7.68281 10.8265 7.60781 10.864 7.48125C10.8827 7.40156 11.1031 6.57656 11.3515 5.64844C11.8249 3.88594 11.8484 3.74062 11.6796 3.4875C11.4218 3.08906 10.7234 3.08437 10.4656 3.48281C10.4234 3.54375 10.2593 4.08281 10.0999 4.67812C9.94055 5.27812 9.79524 5.76562 9.77649 5.76562C9.76243 5.76562 9.59368 5.49844 9.40618 5.175L9.06399 4.57969L9.2843 3.75469C9.40618 3.3 9.49993 2.82656 9.49993 2.70469C9.49993 2.5125 9.47649 2.45625 9.31712 2.2875C9.15305 2.10938 9.11555 2.09062 8.85305 2.07187C8.61868 2.05312 8.53899 2.07187 8.40305 2.15156C8.26243 2.24062 8.10305 2.48438 8.03743 2.71406C8.02805 2.75156 7.88743 2.55 7.72805 2.26875C7.37649 1.65937 7.24524 1.54688 6.87024 1.54688C6.70149 1.54688 6.57493 1.575 6.48118 1.63594Z" />
</svg>
