<svg width="25" height="24" viewBox="0 0 25 24" fill="#E4E4E4" xmlns="http://www.w3.org/2000/svg">
<path d="M6.93602 3.24375C5.98446 3.88125 5.15008 5.02969 4.70008 6.32344C4.14696 7.9125 4.12821 9.70781 4.65321 11.3203C4.71883 11.5266 5.03289 12.2344 5.35164 12.8906C6.27508 14.8031 6.57039 15.6656 6.68758 16.7578C6.78602 17.6672 6.60321 18.7922 6.17664 19.8797C5.96571 20.4141 5.94696 20.5594 6.05477 20.7656C6.14852 20.9437 6.25633 21 6.51414 21C6.68758 21 6.77664 20.9625 7.05321 20.7656C8.78289 19.5516 9.81883 17.25 9.72039 14.8359C9.66414 13.4859 9.44383 12.7359 8.59071 10.9734C7.57352 8.86875 7.29696 7.96406 7.29696 6.72187C7.29696 5.85937 7.47039 5.00625 7.84071 4.07812C8.04696 3.55781 8.05164 3.32344 7.86414 3.13594C7.75164 3.02812 7.68602 3 7.51727 3C7.33914 3 7.24539 3.04219 6.93602 3.24375Z"/>
<path d="M12.4953 3.19687C12.0922 3.45937 11.3047 4.25625 11.0141 4.6875C10.5078 5.44687 10.1328 6.36094 9.9125 7.35937C9.82344 7.78594 9.80938 7.99219 9.80469 8.88281C9.80469 10.4484 9.94063 10.9875 10.7891 12.75C11.4031 14.0297 11.6469 14.5969 11.8484 15.1922C12.3781 16.7719 12.3266 18.2016 11.6938 19.8234C11.45 20.4375 11.4359 20.6578 11.6328 20.8594C11.7453 20.9766 11.8016 21 11.9891 21C12.2891 21 12.6641 20.7469 13.2781 20.1375C14.1922 19.2234 14.7688 18.1125 15.0828 16.6406C15.1766 16.2141 15.1906 16.0078 15.1906 15.0938C15.1906 14.175 15.1813 13.9781 15.0875 13.5656C14.9281 12.8391 14.7125 12.2625 14.1453 11.1C13.3016 9.35625 12.9453 8.37187 12.8281 7.44375C12.6969 6.39844 12.8563 5.32969 13.3109 4.17188C13.55 3.5625 13.5641 3.34219 13.3672 3.14062C13.2547 3.02344 13.1984 3 13.0109 3C12.8328 3 12.7391 3.0375 12.4953 3.19687Z"/>
<path d="M17.933 3.24375C16.6908 4.10625 15.7955 5.57344 15.4205 7.35469C15.308 7.875 15.2939 8.05312 15.2939 8.85937C15.2939 10.4062 15.4768 11.0906 16.4049 13.0172C17.408 15.0938 17.6518 15.8531 17.6893 17.0437C17.7268 18.0609 17.558 18.9516 17.1455 19.9688C16.9533 20.4328 16.9533 20.6766 17.1361 20.8641C17.2486 20.9766 17.3143 21 17.4924 21C17.6799 21 17.7643 20.9672 18.0221 20.7844C18.4768 20.4656 18.8049 20.1703 19.1049 19.8047C20.6658 17.9203 21.1486 15.1406 20.3471 12.6797C20.2768 12.4734 19.9674 11.7656 19.6486 11.1094C18.7205 9.18281 18.4299 8.32969 18.3127 7.24219C18.2143 6.33281 18.3971 5.20781 18.8236 4.12031C19.0346 3.58594 19.0533 3.44062 18.9455 3.23438C18.8518 3.05625 18.7439 3 18.4861 3C18.3127 3 18.2236 3.0375 17.933 3.24375Z"/>
</svg>
