<svg width="24" height="24" viewBox="0 0 24 24" fill="#E4E4E4" xmlns="http://www.w3.org/2000/svg">
<path d="M5.15625 0.360939C4.78125 0.614063 4.60781 0.764065 4.58906 0.843752C4.57031 0.909376 4.55625 3.98906 4.55156 7.69219L4.54688 14.4234L4.18594 14.4563C3.70313 14.5031 3.42656 14.6297 3.14531 14.9344C2.76563 15.3516 2.76563 15.3375 2.76563 17.6109V19.5938H2.39062C2.04844 19.5938 2.00156 19.6078 1.89844 19.7109L1.78125 19.8234V20.9484C1.78125 21.5672 1.79531 22.1063 1.80938 22.1484C1.87969 22.3219 2.07188 22.3594 2.90625 22.3594H3.70313V22.9313C3.70313 23.5781 3.75469 23.7328 4.04063 23.9063C4.18594 23.9953 4.27969 24 5.39531 24C6.56719 24 6.6 23.9953 6.75469 23.8922C7.02188 23.7188 7.07812 23.5406 7.07812 22.9078V22.3594H12H16.9219V22.9078C16.9219 23.5406 16.9781 23.7188 17.2453 23.8922C17.4 23.9953 17.4328 24 18.6047 24C19.7203 24 19.8141 23.9953 19.9594 23.9063C20.2453 23.7328 20.2969 23.5781 20.2969 22.9313V22.3594H21.0938C21.9281 22.3594 22.1203 22.3219 22.1906 22.1484C22.2047 22.1063 22.2188 21.5672 22.2188 20.9484V19.8234L22.1016 19.7109C21.9984 19.6078 21.9516 19.5938 21.6094 19.5938H21.2344V17.6109C21.2344 15.3375 21.2344 15.3516 20.8547 14.9344C20.5734 14.6297 20.2969 14.5031 19.8141 14.4563L19.4531 14.4234L19.4484 7.69219C19.4438 3.98906 19.4297 0.909376 19.4109 0.843752C19.3922 0.764065 19.2188 0.614063 18.8438 0.360939C18.4078 0.0656261 18.2766 1.90735e-06 18.1313 1.90735e-06C17.7797 1.90735e-06 17.7938 -0.0796852 17.7656 2.35313L17.7422 4.51875L17.5922 4.12031C17.2219 3.14531 16.575 2.55469 15.6797 2.36719C15.2156 2.26875 8.75625 2.26875 8.30625 2.3625C7.39219 2.55938 6.69375 3.23906 6.34688 4.26563L6.25781 4.52344L6.23438 2.35781C6.20625 -0.0843735 6.22031 1.90735e-06 5.86875 1.90735e-06C5.72344 1.90735e-06 5.59219 0.0656261 5.15625 0.360939ZM17.2969 8.48438V10.2188H12H6.70312V8.48438V6.75H12H17.2969V8.48438ZM14.7375 12.9094C14.8219 12.9422 14.9438 13.0453 15.0047 13.1297L15.1172 13.2891V15.8063C15.1172 18.2719 15.1172 18.3234 15.0188 18.45C14.9672 18.5203 14.8641 18.6234 14.7938 18.675C14.6672 18.7734 14.6203 18.7734 12 18.7734C9.37969 18.7734 9.33281 18.7734 9.20625 18.675C9.13594 18.6234 9.03281 18.5203 8.98125 18.45C8.88281 18.3234 8.88281 18.2719 8.88281 15.8063V13.2891L8.99531 13.1297C9.20156 12.8438 9.14531 12.8484 11.9906 12.8438C14.0953 12.8438 14.6109 12.8578 14.7375 12.9094ZM6.75 17.3484C6.97031 17.475 7.09219 17.6813 7.09219 17.9391C7.09219 18.1781 6.98438 18.3516 6.74531 18.4922C6.60469 18.5766 6.50156 18.5859 5.83594 18.5859C5.01563 18.5859 4.87969 18.5484 4.67813 18.2766C4.55625 18.1125 4.55156 17.7797 4.66875 17.5875C4.83281 17.3109 5.03906 17.25 5.85469 17.25C6.49688 17.25 6.59063 17.2594 6.75 17.3484ZM19.0547 17.3438C19.2938 17.4609 19.4203 17.6719 19.4156 17.9438C19.4156 18.1875 19.3078 18.3516 19.0734 18.4922C18.9328 18.5766 18.8297 18.5859 18.1641 18.5859C17.3438 18.5859 17.2078 18.5484 17.0016 18.2719C16.8797 18.1078 16.875 17.7891 16.9922 17.5922C17.1609 17.3016 17.3297 17.25 18.1359 17.25C18.7641 17.25 18.8859 17.2641 19.0547 17.3438Z"/>
<path d="M9.40303 13.3641C9.23897 13.4906 9.23428 13.7672 9.38897 13.9125L9.49678 14.0156H11.9952H14.489L14.6015 13.8984C14.6765 13.8281 14.7187 13.7297 14.7187 13.6406C14.7187 13.5516 14.6765 13.4531 14.6015 13.3828L14.489 13.2656H12.0093C9.57178 13.2656 9.52491 13.2656 9.40303 13.3641Z"/>
<path d="M9.38429 14.8266C9.24367 14.9766 9.24836 15.2062 9.39836 15.3516L9.51086 15.4687H11.953C14.6905 15.4687 14.639 15.4734 14.6999 15.1594C14.7234 15.0328 14.7093 14.9625 14.639 14.8687L14.5452 14.7422L12.014 14.7281L9.48742 14.7187L9.38429 14.8266Z"/>
<path d="M9.4875 16.1906C9.33281 16.2609 9.28125 16.3452 9.28125 16.5281C9.28125 16.7062 9.35625 16.814 9.52031 16.8702C9.72188 16.9406 14.2688 16.9406 14.4703 16.8749C14.7891 16.7624 14.7891 16.2843 14.4703 16.1718C14.2453 16.0968 9.675 16.1109 9.4875 16.1906Z"/>
<path d="M9.3983 17.6906C9.24362 17.8453 9.23893 18.0844 9.38893 18.225L9.49674 18.3281H12.0092H14.5264L14.6202 18.2062C14.7421 18.0516 14.7467 17.8547 14.6296 17.7141L14.5405 17.6016L12.028 17.5875L9.51549 17.5734L9.3983 17.6906Z"/>
</svg>
